<?xml version="1.0" encoding="UTF-8"?>
<!DOCTYPE svg PUBLIC "-//W3C//DTD SVG 1.1//EN" "http://www.w3.org/Graphics/SVG/1.1/DTD/svg11.dtd">
<svg xmlns="http://www.w3.org/2000/svg" version="1.1" width="690px" height="44px" style="shape-rendering:geometricPrecision; text-rendering:geometricPrecision; image-rendering:optimizeQuality; fill-rule:evenodd; clip-rule:evenodd" xmlns:xlink="http://www.w3.org/1999/xlink">
<g><path style="opacity:0.897" fill="#df0000" d="M -0.5,-0.5 C 4.83333,-0.5 10.1667,-0.5 15.5,-0.5C 16.9518,11.4971 18.4518,23.4971 20,35.5C 20.4999,23.5046 20.6665,11.5046 20.5,-0.5C 23.5,-0.5 26.5,-0.5 29.5,-0.5C 29.5,13.8333 29.5,28.1667 29.5,42.5C 23.8333,42.5 18.1667,42.5 12.5,42.5C 11.3295,29.8021 9.82948,17.1355 8,4.5C 7.50012,17.1623 7.33345,29.8289 7.5,42.5C 4.83333,42.5 2.16667,42.5 -0.5,42.5C -0.5,28.1667 -0.5,13.8333 -0.5,-0.5 Z"/></g>
<g><path style="opacity:0.896" fill="#df0000" d="M 61.5,-0.5 C 66.5,-0.5 71.5,-0.5 76.5,-0.5C 80.3,13.7015 83.6333,28.0349 86.5,42.5C 83.5,42.5 80.5,42.5 77.5,42.5C 77.1489,39.7623 76.4822,37.0956 75.5,34.5C 70.9497,33.1999 66.4497,33.1999 62,34.5C 61.1785,37.1168 60.6785,39.7835 60.5,42.5C 57.5,42.5 54.5,42.5 51.5,42.5C 54.3667,28.0349 57.7,13.7015 61.5,-0.5 Z M 68.5,4.5 C 70.6101,11.2787 72.2767,18.2787 73.5,25.5C 70.5,25.5 67.5,25.5 64.5,25.5C 65.675,18.4671 67.0084,11.4671 68.5,4.5 Z"/></g>
<g><path style="opacity:0.854" fill="#df0000" d="M 108.5,-0.5 C 118.5,-0.5 128.5,-0.5 138.5,-0.5C 139.403,2.39147 139.736,5.39147 139.5,8.5C 135.833,8.5 132.167,8.5 128.5,8.5C 128.5,19.8333 128.5,31.1667 128.5,42.5C 125.5,42.5 122.5,42.5 119.5,42.5C 119.5,31.1667 119.5,19.8333 119.5,8.5C 115.833,8.5 112.167,8.5 108.5,8.5C 108.5,5.5 108.5,2.5 108.5,-0.5 Z"/></g>
<g><path style="opacity:0.879" fill="#df0000" d="M 163.5,-0.5 C 166.167,-0.5 168.833,-0.5 171.5,-0.5C 172.455,5.40926 172.789,11.4093 172.5,17.5C 176.5,17.5 180.5,17.5 184.5,17.5C 184.5,11.5 184.5,5.5 184.5,-0.5C 187.5,-0.5 190.5,-0.5 193.5,-0.5C 193.5,13.8333 193.5,28.1667 193.5,42.5C 190.5,42.5 187.5,42.5 184.5,42.5C 184.5,36.8333 184.5,31.1667 184.5,25.5C 180.5,25.5 176.5,25.5 172.5,25.5C 172.5,31.1667 172.5,36.8333 172.5,42.5C 169.5,42.5 166.5,42.5 163.5,42.5C 163.5,28.1667 163.5,13.8333 163.5,-0.5 Z"/></g>
<g><path style="opacity:0.898" fill="#df0000" d="M 225.5,-0.5 C 230.5,-0.5 235.5,-0.5 240.5,-0.5C 244.23,13.6473 247.896,27.814 251.5,42C 248.183,42.4983 244.85,42.665 241.5,42.5C 241.322,39.7835 240.822,37.1168 240,34.5C 235.55,33.1999 231.05,33.1999 226.5,34.5C 225.518,37.0956 224.851,39.7623 224.5,42.5C 221.5,42.5 218.5,42.5 215.5,42.5C 218.677,28.1265 222.01,13.7931 225.5,-0.5 Z M 232.5,4.5 C 234.924,11.2021 236.591,18.2021 237.5,25.5C 234.5,25.5 231.5,25.5 228.5,25.5C 229.993,18.5276 231.327,11.5276 232.5,4.5 Z"/></g>
<g><path style="opacity:0.961" fill="#df0000" d="M 274.5,-0.5 C 277.167,-0.5 279.833,-0.5 282.5,-0.5C 282.5,11.1667 282.5,22.8333 282.5,34.5C 288.833,34.5 295.167,34.5 301.5,34.5C 301.5,37.1667 301.5,39.8333 301.5,42.5C 292.5,42.5 283.5,42.5 274.5,42.5C 274.5,28.1667 274.5,13.8333 274.5,-0.5 Z"/></g>
<g><path style="opacity:0.88" fill="#df0000" d="M 328.5,-0.5 C 337.833,-0.5 347.167,-0.5 356.5,-0.5C 357.403,2.39147 357.736,5.39147 357.5,8.5C 354.167,8.5 350.833,8.5 347.5,8.5C 347.5,17.1667 347.5,25.8333 347.5,34.5C 350.833,34.5 354.167,34.5 357.5,34.5C 357.5,37.1667 357.5,39.8333 357.5,42.5C 347.833,42.5 338.167,42.5 328.5,42.5C 328.5,39.8333 328.5,37.1667 328.5,34.5C 331.833,34.5 335.167,34.5 338.5,34.5C 338.5,25.8333 338.5,17.1667 338.5,8.5C 335.167,8.5 331.833,8.5 328.5,8.5C 328.5,5.5 328.5,2.5 328.5,-0.5 Z"/></g>
<g><path style="opacity:0.896" fill="#df0000" d="M 383.5,-0.5 C 392.5,-0.5 401.5,-0.5 410.5,-0.5C 410.5,2.5 410.5,5.5 410.5,8.5C 404.5,8.5 398.5,8.5 392.5,8.5C 392.5,11.5 392.5,14.5 392.5,17.5C 398.5,17.5 404.5,17.5 410.5,17.5C 410.5,20.1667 410.5,22.8333 410.5,25.5C 404.5,25.5 398.5,25.5 392.5,25.5C 392.5,28.5 392.5,31.5 392.5,34.5C 398.833,34.5 405.167,34.5 411.5,34.5C 411.5,37.1667 411.5,39.8333 411.5,42.5C 402.167,42.5 392.833,42.5 383.5,42.5C 383.5,28.1667 383.5,13.8333 383.5,-0.5 Z"/></g>
<g><path style="opacity:0.878" fill="#df0000" d="M 489.5,-0.5 C 494.167,-0.5 498.833,-0.5 503.5,-0.5C 505.045,12.0769 506.212,24.7435 507,37.5C 507.706,24.8197 508.54,12.1531 509.5,-0.5C 514.5,-0.5 519.5,-0.5 524.5,-0.5C 524.5,13.8333 524.5,28.1667 524.5,42.5C 521.833,42.5 519.167,42.5 516.5,42.5C 516.826,-1.43139 515.826,-1.43139 513.5,42.5C 509.167,42.5 504.833,42.5 500.5,42.5C 498.176,3.91279 497.176,3.91279 497.5,42.5C 494.833,42.5 492.167,42.5 489.5,42.5C 489.5,28.1667 489.5,13.8333 489.5,-0.5 Z"/></g>
<g><path style="opacity:0.892" fill="#df0000" d="M 555.5,-0.5 C 559.5,-0.5 563.5,-0.5 567.5,-0.5C 575.897,4.27964 579.23,11.613 577.5,21.5C 578.605,29.0158 576.605,35.5158 571.5,41C 569.685,41.7568 568.019,42.5902 566.5,43.5C 563.167,43.5 559.833,43.5 556.5,43.5C 550.33,41.482 546.83,37.1487 546,30.5C 545.152,23.1008 545.485,15.7675 547,8.5C 548.688,4.31481 551.521,1.31481 555.5,-0.5 Z M 558.5,7.5 C 560.857,7.33669 563.19,7.50335 565.5,8C 566.701,8.90252 567.535,10.0692 568,11.5C 568.667,18.1667 568.667,24.8333 568,31.5C 565.434,35.4086 561.934,36.4086 557.5,34.5C 556.416,33.3349 555.583,32.0016 555,30.5C 554.333,24.5 554.333,18.5 555,12.5C 555.697,10.4156 556.864,8.74894 558.5,7.5 Z"/></g>
<g><path style="opacity:0.852" fill="#df0000" d="M 600.5,-0.5 C 610.833,-0.5 621.167,-0.5 631.5,-0.5C 631.5,2.5 631.5,5.5 631.5,8.5C 627.833,8.5 624.167,8.5 620.5,8.5C 620.5,19.8333 620.5,31.1667 620.5,42.5C 617.5,42.5 614.5,42.5 611.5,42.5C 611.5,31.1667 611.5,19.8333 611.5,8.5C 607.833,8.5 604.167,8.5 600.5,8.5C 600.5,5.5 600.5,2.5 600.5,-0.5 Z"/></g>
<g><path style="opacity:0.898" fill="#df0000" d="M 663.5,-0.5 C 668.5,-0.5 673.5,-0.5 678.5,-0.5C 682.3,13.7015 685.633,28.0349 688.5,42.5C 685.5,42.5 682.5,42.5 679.5,42.5C 679.067,39.8344 678.567,37.1677 678,34.5C 673.55,33.1999 669.05,33.1999 664.5,34.5C 663.518,37.0956 662.851,39.7623 662.5,42.5C 659.5,42.5 656.5,42.5 653.5,42.5C 656.367,28.0349 659.7,13.7015 663.5,-0.5 Z M 670.5,4.5 C 672.785,11.2395 674.452,18.2395 675.5,25.5C 672.5,25.5 669.5,25.5 666.5,25.5C 667.992,18.5329 669.325,11.5329 670.5,4.5 Z"/></g>
</svg>
